# xmcd
#
# Track frame offsets:
#	150
#	19598
#	42579
#	58018
#	81031
#	111286
#	140742
#	166607
#	191213
#	215593
#
# Disc length: 3122 seconds
#
# Revision: 0
# Processed by: cddbd v1.5.2PL0 Copyright (c) Steve Scherf et al.
# Submitted via: EZCDAudioConverter 8.0.2.1
#
DISCID=8d0c300a
DTITLE=Various Artist - Vân Sơn. Live Show 09
DYEAR=2002
DGENRE=
TTITLE0=Vân Sơn - Soi gương
TTITLE1=Tâm Đoan - Người đã quên
TTITLE2=Tú Quyên - Ngây thơ
TTITLE3=Đức Phương - Cỏ tương tư
TTITLE4=Hương Lan - Dòng đời
TTITLE5=Hoài Linh - Thư cho mẹ
TTITLE6=Phi Nhung - Hạnh phúc quanh đây
TTITLE7=Vân Sơn - Mẹ tha hương
TTITLE8=Hạ Vy - Thưng mối tình đầu
TTITLE9=Tuấn Linh - Killung Me Softly with his song
EXTD=
EXTT0=
EXTT1=
EXTT2=
EXTT3=
EXTT4=
EXTT5=
EXTT6=
EXTT7=
EXTT8=
EXTT9=
PLAYORDER=
